# xmcd
#
# Track frame offsets:
#	150
#	42785
#	113897
#	168104
#
# Disc length: 2790 seconds
#
# Revision: 0
# Processed by: cddbd v1.5.2PL0 Copyright (c) Steve Scherf et al.
# Submitted via: audiograbber 1.83.01
#
DISCID=260ae404
DTITLE=Mellowed Out - Lounge Music
DYEAR=1900
DGENRE=Chilled
TTITLE0=Mellowed Out
TTITLE1=Cocktails
TTITLE2=Cool Sigh
TTITLE3=Echoes
EXTD=
EXTT0=
EXTT1=
EXTT2=
EXTT3=
PLAYORDER=
